<?xml version="1.0" encoding="utf-8"?>
<!-- Generator: Adobe Illustrator 16.0.4, SVG Export Plug-In . SVG Version: 6.00 Build 0)  -->
<!DOCTYPE svg PUBLIC "-//W3C//DTD SVG 1.1//EN" "http://www.w3.org/Graphics/SVG/1.1/DTD/svg11.dtd">
<svg version="1.1" id="Ebene_1" xmlns="http://www.w3.org/2000/svg" xmlns:xlink="http://www.w3.org/1999/xlink" x="0px" y="0px"
	 width="561.396px" height="446.141px" viewBox="140.049 0 561.396 446.141" enable-background="new 140.049 0 561.396 446.141"
	 xml:space="preserve">
<g>
	<polygon fill="#2D92A3" points="232.59,445.667 429.517,284.978 355.591,224.997 232.59,322.518 	"/>
	
		<linearGradient id="SVGID_1_" gradientUnits="userSpaceOnUse" x1="135.9001" y1="480.7615" x2="84.1942" y2="427.2184" gradientTransform="matrix(1.9244 0 0 -1.9244 165.4201 1136.795)">
		<stop  offset="0" style="stop-color:#000000;stop-opacity:0.55"/>
		<stop  offset="1" style="stop-color:#2D92A3;stop-opacity:0"/>
	</linearGradient>
	<polygon fill="url(#SVGID_1_)" points="291.653,275.689 357.538,343.712 429.517,284.978 429.517,214.091 392.636,196.29 	"/>
	
		<linearGradient id="SVGID_2_" gradientUnits="userSpaceOnUse" x1="6.282" y1="360.6824" x2="80.4758" y2="429.8693" gradientTransform="matrix(1.9244 0 0 -1.9244 165.4201 1136.795)">
		<stop  offset="0.1193" style="stop-color:#01383F;stop-opacity:0.55"/>
		<stop  offset="1" style="stop-color:#2D92A3;stop-opacity:0"/>
	</linearGradient>
	<polygon fill="url(#SVGID_2_)" points="258.818,301.72 352.056,348.186 232.59,445.667 141.181,408.306 	"/>
	<polygon fill="#34AEC3" points="429.517,161.816 429.517,284.978 232.59,125.253 232.59,1.128 	"/>
	
		<linearGradient id="SVGID_3_" gradientUnits="userSpaceOnUse" x1="-7.2742" y1="545.1375" x2="82.8599" y2="549.8612" gradientTransform="matrix(1.9244 0 0 -1.9244 165.4201 1136.795)">
		<stop  offset="0" style="stop-color:#1A616C;stop-opacity:0.55"/>
		<stop  offset="1" style="stop-color:#34AEC3;stop-opacity:0"/>
	</linearGradient>
	<polygon fill="url(#SVGID_3_)" points="146.953,55.487 279.573,163.359 321.854,73.967 232.59,1.128 	"/>
	<polygon fill="#34BAD3" points="232.59,1.128 232.59,445.667 141.181,408.306 141.181,39.081 	"/>
	<polygon fill="#34BAD3" points="609.594,445.775 701.003,408.306 701.003,45.925 609.594,0.273 	"/>
	<polygon fill="#38BBD2" points="429.517,161.816 609.594,0 609.594,139.685 429.517,284.978 	"/>
	
		<linearGradient id="SVGID_4_" gradientUnits="userSpaceOnUse" x1="247.615" y1="568.0398" x2="188.4836" y2="520.1561" gradientTransform="matrix(1.9244 0 0 -1.9244 165.4201 1136.795)">
		<stop  offset="0.1193" style="stop-color:#227280;stop-opacity:0.5"/>
		<stop  offset="1" style="stop-color:#34AEC3;stop-opacity:0"/>
	</linearGradient>
	<polygon fill="url(#SVGID_4_)" points="609.594,0 513.379,86.458 564.053,176.43 609.594,139.685 	"/>
</g>
<linearGradient id="SVGID_5_" gradientUnits="userSpaceOnUse" x1="11.1541" y1="359.1384" x2="11.154" y2="423.6905" gradientTransform="matrix(1.9244 0 0 -1.9244 165.4201 1136.795)">
	<stop  offset="0" style="stop-color:#000000;stop-opacity:0.3"/>
	<stop  offset="1" style="stop-color:#34AEC3;stop-opacity:0"/>
</linearGradient>
<polygon fill="url(#SVGID_5_)" points="141.181,408.306 232.59,445.667 232.59,352.491 141.181,320.369 "/>
<linearGradient id="SVGID_6_" gradientUnits="userSpaceOnUse" x1="108.6306" y1="359.115" x2="108.6306" y2="423.6031" gradientTransform="matrix(-1.9244 0 0 -1.9244 864.3509 1136.795)">
	<stop  offset="0" style="stop-color:#000000;stop-opacity:0.3"/>
	<stop  offset="1" style="stop-color:#34AEC3;stop-opacity:0"/>
</linearGradient>
<polygon fill="url(#SVGID_6_)" points="701.007,320.536 609.598,352.626 609.598,445.709 701.007,408.385 "/>
</svg>
