<svg xmlns="http://www.w3.org/2000/svg" viewBox="0 0 186.7 47.8" width="240"><path fill="#372E2C" d="M138.9 26.9v6.7h-12.7V14.2h6.4v12.7h6.3zm-85.8-3l6.5 9.7h-7l-3-4.5-3 4.5h-7l6.5-9.7-6.5-9.7h7l3 4.5 3-4.5h7l-6.5 9.7zm25.4-7.8c-1-1.5-2.7-2.3-5.1-2.3-2.4 0-4.1.9-5 2.1v-1.8h-6.7v19.4h6.7V22.1c0-1.8.9-2.8 2.4-2.8 1.6 0 2.4 1.1 2.4 2.8v11.5h6.7V22.1c0-1.8.9-2.8 2.4-2.8 1.6 0 2.4 1.1 2.4 2.8v11.5h6.7V20.9c0-4.4-2.2-7.1-6.8-7.1-2.8 0-4.7.8-6.1 2.3m27.2 11c0 1.2-.7 2.5-3.5 2.5-.9 0-1.9-.5-2.1-1.7-.1-1.1.8-2.1 2.6-2.1h3v1.3zm-2.5-13.3c-3.2 0-6.2.6-8 1.8l2.8 4.2c.9-.5 2.4-.9 3.9-.9 2.5 0 3.6.7 3.6 1.7v1.1h-3.3c-4.8 0-8.2 2-8.2 6.4 0 4.2 3 5.9 6.3 5.9 3.7 0 5.3-2.1 5.3-2.1v1.8h6.3V20.9c0-4.9-2.8-7.1-8.7-7.1m12.6.4h6.4v19.4h-6.4V14.2zm-106.1 0h6.4v19.4H9.7V14.2zm27.8 19.4V20.9c0-4.3-2-7.1-6.4-7.1-2.4 0-4.1.9-5 2.1v-1.8h-6.7v19.4h6.7V22.1c0-1.8.9-2.8 2.4-2.8 1.6 0 2.4 1.1 2.4 2.8v11.5h6.6zm111.1 4.5h18.9l9.5-14.2-9.5-14.2h-18.9l6 8.9 3-4.5h7l-6.5 9.7 6.5 9.7h-7l-3-4.5-6 9.1z"/></svg>